# xmcd
#
# Track frame offsets: 
#        150
#        14203
#        30464
#        48120
#        60696
#        74343
#        90694
#        107221
#        121601
#        138291
#        151932
#        167564
#        181664
#        197650
#        218523
#        233244
#        249801
#        265956
#        296809
#        325536
#        339663
#
# Disc length: 4731 seconds
#
# Revision: 0
# Processed by: cddbd v1.5.1PL0 Copyright (c) Steve Scherf et al.
# Submitted via: ExactAudioCopy v0.95a3
#
DISCID=1f127915
DTITLE=Various Artist - DREAM DANCE VOL.31 [CD ¹1)
DYEAR=2003
DGENRE=Dream
TTITLE0=Kate Ryan - Only If I (Extended mix)
TTITLE1=Lexy and K-Paul - Love Me Baby (short)
TTITLE2=Mellow Trax vs. INXS - Mystify (airplay rdit)
TTITLE3=Lasgo - Surrender (radio edit)
TTITLE4=DJs@Work - Some Years Ago (original radiio edit)
TTITLE5=Gigi D'Agoostino - Silence (version 4)
TTITLE6=Mark'Oh feat Tjerk - Words (video version)
TTITLE7=Mario Lopez - Eternal Sound (radio edit)
TTITLE8=Ziggy X - Geschwindigkeitsrausch (single version)
TTITLE9=Svenson - Sunlight Theory (original radio edit)
TTITLE10=Starsplash -Alive (radio edit)
TTITLE11=Klubbingman - Wonderland (video mox)
TTITLE12=Benassi Bros feat. Sandy - Illusion (french sfaction radio ed
TTITLE12=it)
TTITLE13=Kadoc - Nighttrain (kosmonova radio edit)
TTITLE14=Ian van Dahl - I can't Let You Go (radio edit)
TTITLE15=Tiffany Gale - Do You Wanna Dance (radio edit)
TTITLE16=Lichtenfels feat. Phil and Inusa - Kill The Silence (alternativ
TTITLE16=e radio edit)
TTITLE17=Basic Dawn - Pure Thrust (Nu NRG remix edit)
TTITLE18=Kid Q - Save Me (schafthauser remix edit)
TTITLE19=Potatoheadz feat. Da Rock MC - Get Down (radio edit)
TTITLE20=Novaspace - Beds Are Burning (radio edit)
EXTD=
EXTT0=
EXTT1=
EXTT2=
EXTT3=
EXTT4=
EXTT5=
EXTT6=
EXTT7=
EXTT8=
EXTT9=
EXTT10=
EXTT11=
EXTT12=
EXTT13=
EXTT14=
EXTT15=
EXTT16=
EXTT17=
EXTT18=
EXTT19=
EXTT20=
PLAYORDER=
